<svg width="25" height="25" viewBox="0 0 25 25" fill="none" xmlns="http://www.w3.org/2000/svg">
<g id="codicon:bell">
<path id="Vector" d="M20.5655 16.3595C20.1853 15.2076 19.9914 14.0025 19.991 12.7895V9.79249C20.0179 7.89359 19.3403 6.05207 18.089 4.62349C16.8412 3.19326 15.1097 2.27355 13.226 2.04049C12.185 1.93249 11.126 2.04049 10.121 2.38099C9.116 2.70349 8.201 3.24199 7.43 3.96049C6.65437 4.65975 6.03665 5.51627 5.618 6.47299C5.19769 7.42925 4.97767 8.46145 4.9715 9.50599V12.806C4.96955 14.0139 4.77564 15.2139 4.397 16.361L3.5 19.0145L4.2185 20.0015H9.476C9.476 20.7905 9.7985 21.5615 10.355 22.1195C10.91 22.6745 11.6825 22.9985 12.473 22.9985C13.2635 22.9985 14.033 22.676 14.5895 22.1195C15.146 21.563 15.47 20.7905 15.47 20.0015H20.7275L21.4445 19.0145L20.5655 16.3595ZM13.5305 21.08C13.3923 21.2206 13.2278 21.3325 13.0464 21.4095C12.8649 21.4864 12.6701 21.5269 12.473 21.5285C12.2756 21.5269 12.0804 21.4863 11.8986 21.4091C11.7169 21.3318 11.5522 21.2195 11.414 21.0785C11.2732 20.9405 11.1609 20.776 11.0837 20.5945C11.0065 20.4131 10.9658 20.2182 10.964 20.021H13.9625C13.9687 20.2178 13.9335 20.4137 13.8594 20.5961C13.7852 20.7785 13.6722 20.9433 13.5305 21.08ZM5.258 18.515L5.8145 16.844C6.24929 15.5424 6.47361 14.1798 6.479 12.8075V9.50599C6.479 8.66149 6.659 7.83649 6.9995 7.08199C7.34 6.31099 7.8245 5.62849 8.453 5.07199C9.0815 4.49899 9.818 4.06699 10.607 3.81649C11.414 3.54649 12.257 3.45649 13.082 3.54649C14.5939 3.74571 15.9801 4.49297 16.9775 5.64649C17.9753 6.80156 18.5116 8.28436 18.4835 9.81049V12.8255C18.4835 14.189 18.6995 15.5525 19.148 16.862L19.7045 18.5315H5.2595V18.5135L5.258 18.515Z" fill="#888888"/>
</g>
</svg>
