<svg width="22" height="31" viewBox="0 0 22 31" fill="none" xmlns="http://www.w3.org/2000/svg">
<g id="Group">
<path id="Vector" d="M14.9386 29.0124L14.3558 29.8866C14.514 29.992 14.6979 30.0526 14.8878 30.0618C15.0778 30.0709 15.2667 30.0284 15.4343 29.9387C15.602 29.8489 15.7422 29.7154 15.8399 29.5523C15.9376 29.3891 15.9892 29.2025 15.9892 29.0124H14.9386ZM10.7358 26.2105L11.3186 25.3364C11.146 25.2213 10.9432 25.1599 10.7358 25.1599C10.5284 25.1599 10.3256 25.2213 10.153 25.3364L10.7358 26.2105ZM6.53304 29.0124H5.48236C5.48237 29.2025 5.53399 29.3891 5.63172 29.5523C5.72945 29.7154 5.86962 29.8489 6.03728 29.9387C6.20495 30.0284 6.39382 30.0709 6.58376 30.0618C6.77371 30.0526 6.9576 29.992 7.11583 29.8866L6.53304 29.0124ZM15.5213 28.1382L11.3186 25.3364L10.153 27.0847L14.3558 29.8866L15.5213 28.1382ZM10.153 25.3364L5.95026 28.1382L7.11583 29.8866L11.3186 27.0847L10.153 25.3364ZM12.0695 2.78158L12.1283 2.85162L13.7296 1.48993L13.6693 1.41988L12.0695 2.78158ZM15.3714 4.1951L15.4625 4.1867L15.2944 2.09232L15.2033 2.10073L15.3714 4.1951ZM17.3495 6.07233L17.3411 6.16479L19.4355 6.3329L19.4439 6.24184L17.3495 6.07233ZM18.6846 9.40652L18.7547 9.46676L20.1164 7.86691L20.0463 7.80667L18.6846 9.40652ZM18.7547 12.1341L18.6846 12.1929L20.0463 13.7942L20.1164 13.734L18.7547 12.1341ZM17.3411 15.4361L17.3495 15.5271L19.4439 15.359L19.4355 15.268L17.3411 15.4361ZM15.4639 17.4142L15.3714 17.4058L15.2033 19.5001L15.2944 19.5085L15.4639 17.4142ZM12.1297 18.7492L12.0695 18.8193L13.6693 20.181L13.7296 20.1109L12.1297 18.7492ZM9.40213 18.8193L9.34189 18.7492L7.74204 20.1109L7.80228 20.181L9.40213 18.8193ZM6.10016 17.4058L6.0091 17.4128L6.17721 19.5085L6.26827 19.5015L6.10016 17.4058ZM4.12206 15.5285L4.13047 15.4361L2.03609 15.268L2.02769 15.359L4.12206 15.5285ZM2.78699 12.1943L2.71694 12.1341L1.35525 13.734L1.42529 13.7942L2.78699 12.1943ZM2.71694 9.46676L2.78699 9.40652L1.42529 7.80667L1.35525 7.86691L2.71694 9.46676ZM4.13047 6.16479L4.12206 6.07373L2.02769 6.24184L2.03609 6.3329L4.13047 6.16479ZM6.0077 4.1867L6.10016 4.1951L6.26827 2.10073L6.17721 2.09232L6.0077 4.1867ZM9.34189 2.85162L9.40213 2.78158L7.80228 1.41988L7.74204 1.48993L9.34189 2.85162ZM6.10016 4.1951C6.70862 4.24389 7.31997 4.1474 7.88383 3.91358C8.44769 3.67975 8.94791 3.31529 9.34329 2.85022L7.74204 1.48993C7.56231 1.70118 7.33497 1.86671 7.07875 1.9729C6.82253 2.0791 6.54474 2.12291 6.26827 2.10073L6.10016 4.1951ZM4.12206 6.07373C4.10196 5.82094 4.137 5.5654 4.22477 5.32748C4.31253 5.08956 4.45092 4.87354 4.63037 4.69436C4.80982 4.51518 5.02605 4.37711 5.26409 4.2897C5.50214 4.20229 5.75634 4.16762 6.0091 4.1881L6.17721 2.09372C5.62091 2.0489 5.06151 2.12547 4.53772 2.31815C4.01393 2.51083 3.53826 2.81502 3.14362 3.20966C2.74898 3.6043 2.4448 4.07997 2.25212 4.60376C2.05944 5.12755 1.98286 5.68694 2.02769 6.24325L4.12206 6.07373ZM2.78699 9.40652C3.2516 9.01115 3.61568 8.51109 3.84925 7.9475C4.08282 7.38391 4.1792 6.77291 4.13047 6.16479L2.03609 6.3329C2.08092 6.89327 1.85398 7.44243 1.42529 7.80667L2.78699 9.40652ZM2.71694 12.1341C2.52374 11.9697 2.36857 11.7653 2.26215 11.535C2.15573 11.3048 2.10062 11.0541 2.10062 10.8004C2.10062 10.5468 2.15573 10.2961 2.26215 10.0658C2.36857 9.83556 2.52374 9.63115 2.71694 9.46676L1.35525 7.86691C0.930402 8.22858 0.589182 8.67821 0.355186 9.18471C0.121189 9.69121 0 10.2425 0 10.8004C0 11.3584 0.121189 11.9097 0.355186 12.4162C0.589182 12.9227 0.930402 13.3723 1.35525 13.734L2.71694 12.1341ZM4.13047 15.4361C4.17926 14.8276 4.08277 14.2163 3.84894 13.6524C3.61512 13.0885 3.25066 12.5883 2.78559 12.1929L1.42529 13.7942C1.85398 14.1584 2.08092 14.7076 2.03609 15.268L4.13047 15.4361ZM6.0077 17.4142C5.7548 17.4345 5.5005 17.3996 5.2624 17.3119C5.02431 17.2243 4.80812 17.0859 4.62878 16.9064C4.44944 16.727 4.31124 16.5107 4.22375 16.2725C4.13625 16.0343 4.10156 15.78 4.12206 15.5271L2.02769 15.359C1.98286 15.9153 2.05944 16.4747 2.25212 16.9985C2.4448 17.5223 2.74898 17.998 3.14362 18.3926C3.53826 18.7873 4.01393 19.0914 4.53772 19.2841C5.06151 19.4768 5.62091 19.5534 6.17721 19.5085L6.0077 17.4142ZM12.0695 18.8193C11.9051 19.0125 11.7007 19.1677 11.4704 19.2741C11.2401 19.3805 10.9895 19.4356 10.7358 19.4356C10.4821 19.4356 10.2315 19.3805 10.0012 19.2741C9.77093 19.1677 9.56652 19.0125 9.40213 18.8193L7.80228 20.181C8.16394 20.6058 8.61357 20.9471 9.12008 21.181C9.62658 21.415 10.1779 21.5362 10.7358 21.5362C11.2937 21.5362 11.845 21.415 12.3515 21.181C12.858 20.9471 13.3077 20.6058 13.6693 20.181L12.0695 18.8193ZM17.3495 15.5271C17.3699 15.78 17.335 16.0343 17.2473 16.2724C17.1596 16.5105 17.0213 16.7267 16.8418 16.9061C16.6623 17.0854 16.446 17.2236 16.2079 17.3111C15.9697 17.3986 15.7154 17.4333 15.4625 17.4128L15.2944 19.5085C15.8507 19.5534 16.4101 19.4768 16.9339 19.2841C17.4577 19.0914 17.9333 18.7873 18.328 18.3926C18.7226 17.998 19.0268 17.5223 19.2195 16.9985C19.4122 16.4747 19.4887 15.9153 19.4439 15.359L17.3495 15.5271ZM18.6846 12.1929C18.2198 12.5885 17.8556 13.0887 17.622 13.6526C17.3884 14.2164 17.2922 14.8277 17.3411 15.4361L19.4355 15.268C19.3907 14.7076 19.6176 14.1584 20.0463 13.7942L18.6846 12.1929ZM18.7547 9.46676C18.9479 9.63115 19.103 9.83556 19.2094 10.0658C19.3159 10.2961 19.371 10.5468 19.371 10.8004C19.371 11.0541 19.3159 11.3048 19.2094 11.535C19.103 11.7653 18.9479 11.9697 18.7547 12.1341L20.1164 13.734C20.5412 13.3723 20.8824 12.9227 21.1164 12.4162C21.3504 11.9097 21.4716 11.3584 21.4716 10.8004C21.4716 10.2425 21.3504 9.69121 21.1164 9.18471C20.8824 8.67821 20.5412 8.22858 20.1164 7.86691L18.7547 9.46676ZM17.3411 6.16479C17.2923 6.77326 17.3888 7.38461 17.6227 7.94847C17.8565 8.51232 18.2209 9.01255 18.686 9.40792L20.0463 7.80667C19.8351 7.62694 19.6695 7.39961 19.5633 7.14338C19.4571 6.88716 19.4133 6.60938 19.4355 6.3329L17.3411 6.16479ZM15.4639 4.1867C15.7168 4.16638 15.9711 4.20127 16.2092 4.28893C16.4473 4.3766 16.6635 4.51496 16.8428 4.69443C17.0222 4.87391 17.1604 5.09021 17.2479 5.32836C17.3353 5.56652 17.37 5.81944 17.3495 6.07233L19.4439 6.24184C19.4887 5.68554 19.4122 5.12614 19.2195 4.60236C19.0268 4.07857 18.7226 3.60289 18.328 3.20825C17.9333 2.81362 17.4577 2.50943 16.9339 2.31675C16.4101 2.12407 15.8507 2.0475 15.2944 2.09232L15.4639 4.1867ZM12.1283 2.85162C12.5237 3.31624 13.0251 3.68031 13.5887 3.91388C14.1523 4.14745 14.7633 4.24383 15.3714 4.1951L15.2033 2.10073C14.9269 2.12291 14.6491 2.0791 14.3929 1.9729C14.1366 1.86671 13.9093 1.70118 13.7296 1.48993L12.1283 2.85162ZM13.6707 1.41988C13.3091 0.994556 12.8593 0.652919 12.3525 0.418627C11.8457 0.184335 11.2941 0.0629883 10.7358 0.0629883C10.1775 0.0629883 9.62586 0.184335 9.11909 0.418627C8.61233 0.652919 8.16254 0.994556 7.80088 1.41988L9.40213 2.78158C9.56652 2.58838 9.77093 2.4332 10.0012 2.32679C10.2315 2.22037 10.4821 2.16525 10.7358 2.16525C10.9895 2.16525 11.2401 2.22037 11.4704 2.32679C11.7007 2.4332 11.9051 2.58838 12.0695 2.78158L13.6707 1.41988ZM9.34189 18.7492C8.99894 18.3463 8.57664 18.0182 8.10134 17.7857C7.62604 17.5531 7.10791 17.4209 6.57927 17.3974L6.48681 19.4973C6.96873 19.5184 7.42543 19.7383 7.74204 20.1109L9.34189 18.7492ZM6.57927 17.3974C6.41955 17.3903 6.25954 17.3931 6.10016 17.4058L6.26827 19.5001C6.34097 19.4943 6.41399 19.4934 6.48681 19.4973L6.57927 17.3974ZM7.58373 29.0124V18.4466H5.48236V29.0124H7.58373ZM15.3728 17.4058C15.213 17.393 15.0525 17.3902 14.8923 17.3974L14.9848 19.4973C15.0576 19.4934 15.1306 19.4943 15.2033 19.5001L15.3728 17.4058ZM14.8923 17.3974C14.3634 17.4207 13.8451 17.5528 13.3695 17.7854C12.8939 18.018 12.4728 18.3461 12.1297 18.7492L13.7296 20.1109C13.8855 19.928 14.0774 19.7791 14.2933 19.6735C14.5093 19.568 14.7447 19.508 14.9848 19.4973L14.8923 17.3974ZM13.8879 18.448V29.0124H15.9892V18.4466L13.8879 18.448Z" fill="black"/>
<path id="Vector_2" d="M13.5377 9.39941L9.33494 13.6022L7.93402 12.2013" stroke="black" stroke-width="3" stroke-linecap="round" stroke-linejoin="round"/>
</g>
</svg>
