<svg width="30" height="30" viewBox="0 0 30 30" fill="none" xmlns="http://www.w3.org/2000/svg">
<path id="&#236;&#167;&#145;" d="M26.9002 11.9225C26.9002 11.6164 26.7789 11.3229 26.5629 11.1065C26.347 10.8901 26.054 10.7686 25.7486 10.7686C25.4432 10.7686 25.1502 10.8901 24.9343 11.1065C24.7183 11.3229 24.597 11.6164 24.597 11.9225H26.9002ZM5.40303 11.9225C5.40303 11.6164 5.2817 11.3229 5.06572 11.1065C4.84975 10.8901 4.55683 10.7686 4.25139 10.7686C3.94596 10.7686 3.65304 10.8901 3.43706 11.1065C3.22109 11.3229 3.09976 11.6164 3.09976 11.9225H5.40303ZM28.0058 15.8149C28.1112 15.9283 28.2384 16.0192 28.3797 16.0823C28.5209 16.1453 28.6734 16.1792 28.828 16.182C28.9827 16.1847 29.1363 16.1562 29.2797 16.0982C29.4231 16.0401 29.5533 15.9538 29.6627 15.8442C29.7721 15.7346 29.8583 15.6041 29.9162 15.4604C29.9741 15.3167 30.0025 15.1629 29.9998 15.0079C29.9971 14.853 29.9632 14.7002 29.9003 14.5586C29.8374 14.4171 29.7466 14.2897 29.6335 14.1841L28.0058 15.8149ZM15 1.15287L15.8138 0.337458C15.5979 0.121373 15.3052 0 15 0C14.6948 0 14.4021 0.121373 14.1862 0.337458L15 1.15287ZM0.36654 14.1841C0.253393 14.2897 0.162641 14.4171 0.0996971 14.5586C0.0367533 14.7002 0.00290751 14.853 0.000179227 15.0079C-0.00254905 15.1629 0.0258958 15.3167 0.083817 15.4604C0.141738 15.6041 0.227949 15.7346 0.337307 15.8442C0.446664 15.9538 0.576928 16.0401 0.720327 16.0982C0.863726 16.1562 1.01732 16.1847 1.17195 16.182C1.32658 16.1792 1.47908 16.1453 1.62035 16.0823C1.76161 16.0192 1.88875 15.9283 1.99419 15.8149L0.36654 14.1841ZM7.32242 30H22.6776V27.6922H7.32242V30ZM26.9002 25.7691V11.9225H24.597V25.7691H26.9002ZM5.40303 25.7691V11.9225H3.09976V25.7691H5.40303ZM29.6335 14.1841L15.8138 0.337458L14.1862 1.96828L28.0058 15.8149L29.6335 14.1841ZM14.1862 0.337458L0.36654 14.1841L1.99419 15.8149L15.8138 1.96828L14.1862 0.337458ZM22.6776 30C23.7975 30 24.8716 29.5542 25.6635 28.7608C26.4554 27.9673 26.9002 26.8912 26.9002 25.7691H24.597C24.597 26.8307 23.7371 27.6922 22.6776 27.6922V30ZM7.32242 27.6922C6.26292 27.6922 5.40303 26.8307 5.40303 25.7691H3.09976C3.09976 26.8912 3.54464 27.9673 4.33655 28.7608C5.12845 29.5542 6.2025 30 7.32242 30V27.6922Z" fill="black"/>
</svg>
