<svg width="30" height="31" viewBox="0 0 30 31" fill="none" xmlns="http://www.w3.org/2000/svg">
<path id="&#236;&#167;&#145;" d="M26.9002 11.9855C26.9002 11.6794 26.7789 11.3859 26.5629 11.1695C26.347 10.9531 26.054 10.8316 25.7486 10.8316C25.4432 10.8316 25.1502 10.9531 24.9343 11.1695C24.7183 11.3859 24.597 11.6794 24.597 11.9855H26.9002ZM5.40303 11.9855C5.40303 11.6794 5.2817 11.3859 5.06572 11.1695C4.84975 10.9531 4.55683 10.8316 4.25139 10.8316C3.94596 10.8316 3.65304 10.9531 3.43706 11.1695C3.22109 11.3859 3.09976 11.6794 3.09976 11.9855H5.40303ZM28.0058 15.8779C28.1112 15.9913 28.2384 16.0822 28.3797 16.1453C28.5209 16.2083 28.6734 16.2422 28.828 16.245C28.9827 16.2477 29.1363 16.2192 29.2797 16.1612C29.4231 16.1031 29.5533 16.0168 29.6627 15.9072C29.7721 15.7976 29.8583 15.6671 29.9162 15.5234C29.9741 15.3797 30.0026 15.2258 29.9998 15.0709C29.9971 14.916 29.9632 14.7632 29.9003 14.6216C29.8374 14.4801 29.7466 14.3527 29.6335 14.2471L28.0058 15.8779ZM15 1.21586L15.8138 0.400446C15.5979 0.184361 15.3052 0.0629883 15 0.0629883C14.6948 0.0629883 14.4021 0.184361 14.1862 0.400446L15 1.21586ZM0.36654 14.2471C0.253393 14.3527 0.162641 14.4801 0.0996971 14.6216C0.0367533 14.7632 0.00290751 14.916 0.000179227 15.0709C-0.00254905 15.2258 0.0258958 15.3797 0.083817 15.5234C0.141738 15.6671 0.227949 15.7976 0.337307 15.9072C0.446664 16.0168 0.576928 16.1031 0.720327 16.1612C0.863726 16.2192 1.01732 16.2477 1.17195 16.245C1.32658 16.2422 1.47908 16.2083 1.62035 16.1453C1.76161 16.0822 1.88875 15.9913 1.99419 15.8779L0.36654 14.2471ZM7.32242 30.063H22.6776V27.7552H7.32242V30.063ZM26.9002 25.8321V11.9855H24.597V25.8321H26.9002ZM5.40303 25.8321V11.9855H3.09976V25.8321H5.40303ZM29.6335 14.2471L15.8138 0.400446L14.1862 2.03127L28.0058 15.8779L29.6335 14.2471ZM14.1862 0.400446L0.36654 14.2471L1.99419 15.8779L15.8138 2.03127L14.1862 0.400446ZM22.6776 30.063C23.7975 30.063 24.8716 29.6172 25.6635 28.8238C26.4554 28.0303 26.9002 26.9542 26.9002 25.8321H24.597C24.597 26.8936 23.7371 27.7552 22.6776 27.7552V30.063ZM7.32242 27.7552C6.26292 27.7552 5.40303 26.8936 5.40303 25.8321H3.09976C3.09976 26.9542 3.54464 28.0303 4.33655 28.8238C5.12845 29.6172 6.2025 30.063 7.32242 30.063V27.7552Z" fill="#89E289"/>
</svg>
