<svg width="25" height="25" viewBox="0 0 25 25" fill="none" xmlns="http://www.w3.org/2000/svg">
<g id="ion:options-sharp">
<path id="Vector" d="M18.3711 5.74997C18.2159 5.31145 17.9286 4.93181 17.5488 4.6633C17.1689 4.39479 16.7152 4.25061 16.25 4.25061C15.7848 4.25061 15.3311 4.39479 14.9512 4.6633C14.5714 4.93181 14.2841 5.31145 14.1289 5.74997H2.75V7.24997H14.1289C14.2841 7.68849 14.5714 8.06813 14.9512 8.33664C15.3311 8.60515 15.7848 8.74933 16.25 8.74933C16.7152 8.74933 17.1689 8.60515 17.5488 8.33664C17.9286 8.06813 18.2159 7.68849 18.3711 7.24997H22.25V5.74997H18.3711ZM8.75 10.25C8.2849 10.2506 7.83138 10.3951 7.45164 10.6637C7.0719 10.9322 6.78452 11.3117 6.62891 11.75H2.75V13.25H6.62891C6.7841 13.6885 7.07139 14.0681 7.45124 14.3366C7.83109 14.6052 8.28483 14.7493 8.75 14.7493C9.21517 14.7493 9.66891 14.6052 10.0488 14.3366C10.4286 14.0681 10.7159 13.6885 10.8711 13.25H22.25V11.75H10.8711C10.7155 11.3117 10.4281 10.9322 10.0484 10.6637C9.66862 10.3951 9.2151 10.2506 8.75 10.25ZM16.25 16.25C15.7849 16.2506 15.3314 16.3951 14.9516 16.6637C14.5719 16.9322 14.2845 17.3117 14.1289 17.75H2.75V19.25H14.1289C14.2841 19.6885 14.5714 20.0681 14.9512 20.3366C15.3311 20.6052 15.7848 20.7493 16.25 20.7493C16.7152 20.7493 17.1689 20.6052 17.5488 20.3366C17.9286 20.0681 18.2159 19.6885 18.3711 19.25H22.25V17.75H18.3711C18.2155 17.3117 17.9281 16.9322 17.5484 16.6637C17.1686 16.3951 16.7151 16.2506 16.25 16.25Z" fill="#888888"/>
</g>
</svg>
