<svg width="30" height="31" viewBox="0 0 30 31" fill="none" xmlns="http://www.w3.org/2000/svg">
<g id="ML">
<path id="Vector" d="M5 18.813C5.30617 18.813 5.60167 18.9254 5.83046 19.1289C6.05926 19.3323 6.20543 19.6127 6.24125 19.9167L6.25 20.063V23.813H11.25C11.5686 23.8133 11.875 23.9353 12.1067 24.154C12.3384 24.3728 12.4778 24.6717 12.4965 24.9897C12.5151 25.3078 12.4117 25.621 12.2072 25.8653C12.0027 26.1096 11.7126 26.2666 11.3962 26.3042L11.25 26.313H6.25C5.61928 26.3132 5.01179 26.075 4.54931 25.6461C4.08684 25.2173 3.80355 24.6294 3.75625 24.0005L3.75 23.813V20.063C3.75 19.7315 3.8817 19.4135 4.11612 19.1791C4.35054 18.9447 4.66848 18.813 5 18.813ZM25 18.813C25.3315 18.813 25.6495 18.9447 25.8839 19.1791C26.1183 19.4135 26.25 19.7315 26.25 20.063V23.813C26.25 24.476 25.9866 25.1119 25.5178 25.5808C25.0489 26.0496 24.413 26.313 23.75 26.313H18.75C18.4185 26.313 18.1005 26.1813 17.8661 25.9469C17.6317 25.7125 17.5 25.3945 17.5 25.063C17.5 24.7315 17.6317 24.4135 17.8661 24.1791C18.1005 23.9447 18.4185 23.813 18.75 23.813H23.75V20.063C23.75 19.7315 23.8817 19.4135 24.1161 19.1791C24.3505 18.9447 24.6685 18.813 25 18.813ZM25 13.813C25.3186 13.8133 25.625 13.9353 25.8567 14.154C26.0884 14.3728 26.2278 14.6717 26.2465 14.9897C26.2651 15.3078 26.1617 15.621 25.9572 15.8653C25.7527 16.1096 25.4626 16.2666 25.1463 16.3042L25 16.313H5C4.6814 16.3126 4.37496 16.1906 4.14329 15.9719C3.91162 15.7532 3.77221 15.4543 3.75353 15.1362C3.73486 14.8182 3.83834 14.505 4.04283 14.2607C4.24732 14.0164 4.53738 13.8594 4.85375 13.8217L5 13.813H25ZM11.25 3.81299C11.5815 3.81299 11.8995 3.94468 12.1339 4.1791C12.3683 4.41353 12.5 4.73147 12.5 5.06299C12.5 5.39451 12.3683 5.71245 12.1339 5.94687C11.8995 6.18129 11.5815 6.31299 11.25 6.31299H6.25V10.063C6.25 10.3945 6.1183 10.7125 5.88388 10.9469C5.64946 11.1813 5.33152 11.313 5 11.313C4.66848 11.313 4.35054 11.1813 4.11612 10.9469C3.8817 10.7125 3.75 10.3945 3.75 10.063V6.31299C3.75 5.64995 4.01339 5.01406 4.48223 4.54522C4.95107 4.07638 5.58696 3.81299 6.25 3.81299H11.25ZM23.75 3.81299C24.413 3.81299 25.0489 4.07638 25.5178 4.54522C25.9866 5.01406 26.25 5.64995 26.25 6.31299V10.063C26.25 10.3945 26.1183 10.7125 25.8839 10.9469C25.6495 11.1813 25.3315 11.313 25 11.313C24.6685 11.313 24.3505 11.1813 24.1161 10.9469C23.8817 10.7125 23.75 10.3945 23.75 10.063V6.31299H18.75C18.4185 6.31299 18.1005 6.18129 17.8661 5.94687C17.6317 5.71245 17.5 5.39451 17.5 5.06299C17.5 4.73147 17.6317 4.41353 17.8661 4.1791C18.1005 3.94468 18.4185 3.81299 18.75 3.81299H23.75Z" fill="black"/>
</g>
</svg>
